<?xml version="1.0" encoding="UTF-8" standalone="no"?>
<!DOCTYPE svg PUBLIC "-//W3C//DTD SVG 1.1//EN"
 "http://www.w3.org/Graphics/SVG/1.1/DTD/svg11.dtd">
<!-- Generated by graphviz version 14.1.5 (20260411.2331)
 -->
<!-- Title: G Pages: 1 -->
<svg width="1293pt" height="1086pt"
 viewBox="0.00 0.00 1293.00 1086.00" xmlns="http://www.w3.org/2000/svg" xmlns:xlink="http://www.w3.org/1999/xlink">
<g id="graph0" class="graph" transform="scale(1 1) rotate(0) translate(36 1050)">
<title>G</title>
<polygon fill="#f7f7f7" stroke="none" points="-36,36 -36,-1050 1256.5,-1050 1256.5,36 -36,36"/>
<!-- appmodelsckpkipapp -->
<g id="node1" class="node">
<title>appmodelsckpkipapp</title>
<polygon fill="none" stroke="black" points="160,-613.5 0,-613.5 0,-299.5 160,-299.5 160,-613.5"/>
<polygon fill="#d3d3d3" stroke="none" points="0,-574.25 0,-613.5 160,-613.5 160,-574.25 0,-574.25"/>
<polygon fill="none" stroke="black" points="0,-574.25 0,-613.5 160,-613.5 160,-574.25 0,-574.25"/>
<text xml:space="preserve" text-anchor="start" x="48.12" y="-588.25" font-family="Helvetica Neue" font-size="14.00" fill="#333333">CkpKipapp</text>
<polygon fill="#ffffff" stroke="none" points="0,-535 0,-574.25 160,-574.25 160,-535 0,-535"/>
<polygon fill="none" stroke="black" points="0,-535 0,-574.25 160,-574.25 160,-535 0,-535"/>
<text xml:space="preserve" text-anchor="start" x="11" y="-549" font-family="Helvetica Neue" font-size="14.00" fill="#333333">id (integer)</text>
<polygon fill="#ffffff" stroke="none" points="0,-495.75 0,-535 160,-535 160,-495.75 0,-495.75"/>
<polygon fill="none" stroke="black" points="0,-495.75 0,-535 160,-535 160,-495.75 0,-495.75"/>
<text xml:space="preserve" text-anchor="start" x="11" y="-509.75" font-family="Helvetica Neue" font-size="14.00" fill="#333333">user_id (integer)</text>
<polygon fill="#ffffff" stroke="none" points="0,-456.5 0,-495.75 160,-495.75 160,-456.5 0,-456.5"/>
<polygon fill="none" stroke="black" points="0,-456.5 0,-495.75 160,-495.75 160,-456.5 0,-456.5"/>
<text xml:space="preserve" text-anchor="start" x="11" y="-470.5" font-family="Helvetica Neue" font-size="14.00" fill="#333333">nama_file (varchar)</text>
<polygon fill="#ffffff" stroke="none" points="0,-417.25 0,-456.5 160,-456.5 160,-417.25 0,-417.25"/>
<polygon fill="none" stroke="black" points="0,-417.25 0,-456.5 160,-456.5 160,-417.25 0,-417.25"/>
<text xml:space="preserve" text-anchor="start" x="11" y="-431.25" font-family="Helvetica Neue" font-size="14.00" fill="#333333">bulan (varchar)</text>
<polygon fill="#ffffff" stroke="none" points="0,-378 0,-417.25 160,-417.25 160,-378 0,-378"/>
<polygon fill="none" stroke="black" points="0,-378 0,-417.25 160,-417.25 160,-378 0,-378"/>
<text xml:space="preserve" text-anchor="start" x="11" y="-392" font-family="Helvetica Neue" font-size="14.00" fill="#333333">tahun (integer)</text>
<polygon fill="#ffffff" stroke="none" points="0,-338.75 0,-378 160,-378 160,-338.75 0,-338.75"/>
<polygon fill="none" stroke="black" points="0,-338.75 0,-378 160,-378 160,-338.75 0,-338.75"/>
<text xml:space="preserve" text-anchor="start" x="11" y="-352.75" font-family="Helvetica Neue" font-size="14.00" fill="#333333">created_at (datetime)</text>
<polygon fill="#ffffff" stroke="none" points="0,-299.5 0,-338.75 160,-338.75 160,-299.5 0,-299.5"/>
<polygon fill="none" stroke="black" points="0,-299.5 0,-338.75 160,-338.75 160,-299.5 0,-299.5"/>
<text xml:space="preserve" text-anchor="start" x="11" y="-313.5" font-family="Helvetica Neue" font-size="14.00" fill="#333333">updated_at (datetime)</text>
</g>
<!-- appmodelsuser -->
<g id="node2" class="node">
<title>appmodelsuser</title>
<polygon fill="none" stroke="black" points="547.25,-573.75 308.5,-573.75 308.5,-181.25 547.25,-181.25 547.25,-573.75"/>
<polygon fill="#d3d3d3" stroke="none" points="308.5,-534.5 308.5,-573.75 547.25,-573.75 547.25,-534.5 308.5,-534.5"/>
<polygon fill="none" stroke="black" points="308.5,-534.5 308.5,-573.75 547.25,-573.75 547.25,-534.5 308.5,-534.5"/>
<text xml:space="preserve" text-anchor="start" x="414" y="-548.5" font-family="Helvetica Neue" font-size="14.00" fill="#333333">User</text>
<polygon fill="#ffffff" stroke="none" points="308.5,-495.25 308.5,-534.5 547.25,-534.5 547.25,-495.25 308.5,-495.25"/>
<polygon fill="none" stroke="black" points="308.5,-495.25 308.5,-534.5 547.25,-534.5 547.25,-495.25 308.5,-495.25"/>
<text xml:space="preserve" text-anchor="start" x="319.5" y="-509.25" font-family="Helvetica Neue" font-size="14.00" fill="#333333">id (integer)</text>
<polygon fill="#ffffff" stroke="none" points="308.5,-456 308.5,-495.25 547.25,-495.25 547.25,-456 308.5,-456"/>
<polygon fill="none" stroke="black" points="308.5,-456 308.5,-495.25 547.25,-495.25 547.25,-456 308.5,-456"/>
<text xml:space="preserve" text-anchor="start" x="319.5" y="-470" font-family="Helvetica Neue" font-size="14.00" fill="#333333">name (varchar)</text>
<polygon fill="#ffffff" stroke="none" points="308.5,-416.75 308.5,-456 547.25,-456 547.25,-416.75 308.5,-416.75"/>
<polygon fill="none" stroke="black" points="308.5,-416.75 308.5,-456 547.25,-456 547.25,-416.75 308.5,-416.75"/>
<text xml:space="preserve" text-anchor="start" x="319.5" y="-430.75" font-family="Helvetica Neue" font-size="14.00" fill="#333333">email (varchar)</text>
<polygon fill="#ffffff" stroke="none" points="308.5,-377.5 308.5,-416.75 547.25,-416.75 547.25,-377.5 308.5,-377.5"/>
<polygon fill="none" stroke="black" points="308.5,-377.5 308.5,-416.75 547.25,-416.75 547.25,-377.5 308.5,-377.5"/>
<text xml:space="preserve" text-anchor="start" x="319.5" y="-391.5" font-family="Helvetica Neue" font-size="14.00" fill="#333333">email_verified_at (datetime)</text>
<polygon fill="#ffffff" stroke="none" points="308.5,-338.25 308.5,-377.5 547.25,-377.5 547.25,-338.25 308.5,-338.25"/>
<polygon fill="none" stroke="black" points="308.5,-338.25 308.5,-377.5 547.25,-377.5 547.25,-338.25 308.5,-338.25"/>
<text xml:space="preserve" text-anchor="start" x="319.5" y="-352.25" font-family="Helvetica Neue" font-size="14.00" fill="#333333">password (varchar)</text>
<polygon fill="#ffffff" stroke="none" points="308.5,-299 308.5,-338.25 547.25,-338.25 547.25,-299 308.5,-299"/>
<polygon fill="none" stroke="black" points="308.5,-299 308.5,-338.25 547.25,-338.25 547.25,-299 308.5,-299"/>
<text xml:space="preserve" text-anchor="start" x="319.5" y="-313" font-family="Helvetica Neue" font-size="14.00" fill="#333333">remember_token (varchar)</text>
<polygon fill="#ffffff" stroke="none" points="308.5,-259.75 308.5,-299 547.25,-299 547.25,-259.75 308.5,-259.75"/>
<polygon fill="none" stroke="black" points="308.5,-259.75 308.5,-299 547.25,-299 547.25,-259.75 308.5,-259.75"/>
<text xml:space="preserve" text-anchor="start" x="319.5" y="-273.75" font-family="Helvetica Neue" font-size="14.00" fill="#333333">created_at (datetime)</text>
<polygon fill="#ffffff" stroke="none" points="308.5,-220.5 308.5,-259.75 547.25,-259.75 547.25,-220.5 308.5,-220.5"/>
<polygon fill="none" stroke="black" points="308.5,-220.5 308.5,-259.75 547.25,-259.75 547.25,-220.5 308.5,-220.5"/>
<text xml:space="preserve" text-anchor="start" x="319.5" y="-234.5" font-family="Helvetica Neue" font-size="14.00" fill="#333333">updated_at (datetime)</text>
<polygon fill="#ffffff" stroke="none" points="308.5,-181.25 308.5,-220.5 547.25,-220.5 547.25,-181.25 308.5,-181.25"/>
<polygon fill="none" stroke="black" points="308.5,-181.25 308.5,-220.5 547.25,-220.5 547.25,-181.25 308.5,-181.25"/>
<text xml:space="preserve" text-anchor="start" x="319.5" y="-195.25" font-family="Helvetica Neue" font-size="14.00" fill="#333333">must_change_password (tinyint(1))</text>
</g>
<!-- appmodelsckpkipapp&#45;&gt;appmodelsuser -->
<g id="edge1" class="edge">
<title>appmodelsckpkipapp:user_id&#45;&gt;appmodelsuser:id</title>
<path fill="none" stroke="#f77f00" stroke-width="1.8" d="M170.68,-515.34C200.34,-515.24 282.91,-514.96 303.7,-514.89"/>
<polygon fill="#f77f00" stroke="#f77f00" stroke-width="1.8" points="170.6,-515.34 160.59,-510.87 165,-515.36 161.2,-515.37 161.2,-515.37 161.2,-515.37 165,-515.36 160.62,-519.87 170.6,-515.34"/>
<polygon fill="#f77f00" stroke="#f77f00" stroke-width="1.8" points="307.48,-509.88 307.52,-519.88 305.52,-519.89 305.48,-509.89 307.48,-509.88"/>
<polyline fill="none" stroke="#f77f00" stroke-width="1.8" points="308.5,-514.88 303.5,-514.89"/>
<text xml:space="preserve" text-anchor="middle" x="234.25" y="-519.08" font-family="Helvetica Neue" font-size="14.00"> </text>
<text xml:space="preserve" text-anchor="middle" x="267.94" y="-536.32" font-family="Helvetica Neue" font-size="14.00">BelongsTo</text>
<text xml:space="preserve" text-anchor="middle" x="267.94" y="-519.07" font-family="Helvetica Neue" font-size="14.00">user</text>
</g>
<!-- appmodelsuser&#45;&gt;appmodelsckpkipapp -->
<g id="edge9" class="edge">
<title>appmodelsuser:id&#45;&gt;appmodelsckpkipapp:user_id</title>
<path fill="none" stroke="#fcbf49" stroke-width="1.8" d="M308.5,-514.88C308.5,-514.88 236.5,-480.25 236.5,-480.25 236.5,-480.25 232,-480.25 232,-480.25 232,-480.25 188.93,-501.26 169.41,-510.78"/>
<polygon fill="#fcbf49" stroke="#fcbf49" stroke-width="1.8" points="169.53,-510.73 158.57,-511.07 164.49,-513.18 161.08,-514.85 161.08,-514.85 161.08,-514.85 164.49,-513.18 162.51,-519.16 169.53,-510.73"/>
<text xml:space="preserve" text-anchor="middle" x="234.25" y="-484.2" font-family="Helvetica Neue" font-size="14.00"> </text>
<text xml:space="preserve" text-anchor="middle" x="273.22" y="-468.2" font-family="Helvetica Neue" font-size="14.00">HasMany</text>
<text xml:space="preserve" text-anchor="middle" x="273.22" y="-450.95" font-family="Helvetica Neue" font-size="14.00">ckpKipapps</text>
</g>
<!-- appmodelspegawai -->
<g id="node4" class="node">
<title>appmodelspegawai</title>
<polygon fill="none" stroke="black" points="855.75,-1014 695.75,-1014 695.75,-543 855.75,-543 855.75,-1014"/>
<polygon fill="#d3d3d3" stroke="none" points="695.75,-974.75 695.75,-1014 855.75,-1014 855.75,-974.75 695.75,-974.75"/>
<polygon fill="none" stroke="black" points="695.75,-974.75 695.75,-1014 855.75,-1014 855.75,-974.75 695.75,-974.75"/>
<text xml:space="preserve" text-anchor="start" x="750.25" y="-988.75" font-family="Helvetica Neue" font-size="14.00" fill="#333333">Pegawai</text>
<polygon fill="#ffffff" stroke="none" points="695.75,-935.5 695.75,-974.75 855.75,-974.75 855.75,-935.5 695.75,-935.5"/>
<polygon fill="none" stroke="black" points="695.75,-935.5 695.75,-974.75 855.75,-974.75 855.75,-935.5 695.75,-935.5"/>
<text xml:space="preserve" text-anchor="start" x="706.75" y="-949.5" font-family="Helvetica Neue" font-size="14.00" fill="#333333">id (integer)</text>
<polygon fill="#ffffff" stroke="none" points="695.75,-896.25 695.75,-935.5 855.75,-935.5 855.75,-896.25 695.75,-896.25"/>
<polygon fill="none" stroke="black" points="695.75,-896.25 695.75,-935.5 855.75,-935.5 855.75,-896.25 695.75,-896.25"/>
<text xml:space="preserve" text-anchor="start" x="706.75" y="-910.25" font-family="Helvetica Neue" font-size="14.00" fill="#333333">user_id (integer)</text>
<polygon fill="#ffffff" stroke="none" points="695.75,-857 695.75,-896.25 855.75,-896.25 855.75,-857 695.75,-857"/>
<polygon fill="none" stroke="black" points="695.75,-857 695.75,-896.25 855.75,-896.25 855.75,-857 695.75,-857"/>
<text xml:space="preserve" text-anchor="start" x="706.75" y="-871" font-family="Helvetica Neue" font-size="14.00" fill="#333333">nip (varchar)</text>
<polygon fill="#ffffff" stroke="none" points="695.75,-817.75 695.75,-857 855.75,-857 855.75,-817.75 695.75,-817.75"/>
<polygon fill="none" stroke="black" points="695.75,-817.75 695.75,-857 855.75,-857 855.75,-817.75 695.75,-817.75"/>
<text xml:space="preserve" text-anchor="start" x="706.75" y="-831.75" font-family="Helvetica Neue" font-size="14.00" fill="#333333">nip_lama (varchar)</text>
<polygon fill="#ffffff" stroke="none" points="695.75,-778.5 695.75,-817.75 855.75,-817.75 855.75,-778.5 695.75,-778.5"/>
<polygon fill="none" stroke="black" points="695.75,-778.5 695.75,-817.75 855.75,-817.75 855.75,-778.5 695.75,-778.5"/>
<text xml:space="preserve" text-anchor="start" x="706.75" y="-792.5" font-family="Helvetica Neue" font-size="14.00" fill="#333333">no_hp (varchar)</text>
<polygon fill="#ffffff" stroke="none" points="695.75,-739.25 695.75,-778.5 855.75,-778.5 855.75,-739.25 695.75,-739.25"/>
<polygon fill="none" stroke="black" points="695.75,-739.25 695.75,-778.5 855.75,-778.5 855.75,-739.25 695.75,-739.25"/>
<text xml:space="preserve" text-anchor="start" x="706.75" y="-753.25" font-family="Helvetica Neue" font-size="14.00" fill="#333333">jabatan (varchar)</text>
<polygon fill="#ffffff" stroke="none" points="695.75,-700 695.75,-739.25 855.75,-739.25 855.75,-700 695.75,-700"/>
<polygon fill="none" stroke="black" points="695.75,-700 695.75,-739.25 855.75,-739.25 855.75,-700 695.75,-700"/>
<text xml:space="preserve" text-anchor="start" x="706.75" y="-714" font-family="Helvetica Neue" font-size="14.00" fill="#333333">pangkat (varchar)</text>
<polygon fill="#ffffff" stroke="none" points="695.75,-660.75 695.75,-700 855.75,-700 855.75,-660.75 695.75,-660.75"/>
<polygon fill="none" stroke="black" points="695.75,-660.75 695.75,-700 855.75,-700 855.75,-660.75 695.75,-660.75"/>
<text xml:space="preserve" text-anchor="start" x="706.75" y="-674.75" font-family="Helvetica Neue" font-size="14.00" fill="#333333">golongan (varchar)</text>
<polygon fill="#ffffff" stroke="none" points="695.75,-621.5 695.75,-660.75 855.75,-660.75 855.75,-621.5 695.75,-621.5"/>
<polygon fill="none" stroke="black" points="695.75,-621.5 695.75,-660.75 855.75,-660.75 855.75,-621.5 695.75,-621.5"/>
<text xml:space="preserve" text-anchor="start" x="706.75" y="-635.5" font-family="Helvetica Neue" font-size="14.00" fill="#333333">created_at (datetime)</text>
<polygon fill="#ffffff" stroke="none" points="695.75,-582.25 695.75,-621.5 855.75,-621.5 855.75,-582.25 695.75,-582.25"/>
<polygon fill="none" stroke="black" points="695.75,-582.25 695.75,-621.5 855.75,-621.5 855.75,-582.25 695.75,-582.25"/>
<text xml:space="preserve" text-anchor="start" x="706.75" y="-596.25" font-family="Helvetica Neue" font-size="14.00" fill="#333333">updated_at (datetime)</text>
<polygon fill="#ffffff" stroke="none" points="695.75,-543 695.75,-582.25 855.75,-582.25 855.75,-543 695.75,-543"/>
<polygon fill="none" stroke="black" points="695.75,-543 695.75,-582.25 855.75,-582.25 855.75,-543 695.75,-543"/>
<text xml:space="preserve" text-anchor="start" x="706.75" y="-557" font-family="Helvetica Neue" font-size="14.00" fill="#333333">penilai_id (integer)</text>
</g>
<!-- appmodelsuser&#45;&gt;appmodelspegawai -->
<g id="edge8" class="edge">
<title>appmodelsuser:id&#45;&gt;appmodelspegawai:user_id</title>
<path fill="none" stroke="#d62828" stroke-width="1.8" d="M547.25,-514.88C547.25,-514.88 619.25,-750.5 619.25,-750.5 619.25,-750.5 681.54,-885.15 693.7,-911.45"/>
<polygon fill="#d62828" stroke="#d62828" stroke-width="1.8" points="699.87,-912.87 690.79,-917.07 689.95,-915.25 699.03,-911.05 699.87,-912.87"/>
<polyline fill="none" stroke="#d62828" stroke-width="1.8" points="695.75,-915.88 693.65,-911.34"/>
<text xml:space="preserve" text-anchor="middle" x="621.5" y="-763.27" font-family="Helvetica Neue" font-size="14.00"> </text>
<text xml:space="preserve" text-anchor="middle" x="583.66" y="-704.19" font-family="Helvetica Neue" font-size="14.00">HasOne</text>
<text xml:space="preserve" text-anchor="middle" x="583.66" y="-686.94" font-family="Helvetica Neue" font-size="14.00">pegawai</text>
</g>
<!-- appmodelsnilaipegawai -->
<g id="node5" class="node">
<title>appmodelsnilaipegawai</title>
<polygon fill="none" stroke="black" points="855.75,-471 695.75,-471 695.75,0 855.75,0 855.75,-471"/>
<polygon fill="#d3d3d3" stroke="none" points="695.75,-431.75 695.75,-471 855.75,-471 855.75,-431.75 695.75,-431.75"/>
<polygon fill="none" stroke="black" points="695.75,-431.75 695.75,-471 855.75,-471 855.75,-431.75 695.75,-431.75"/>
<text xml:space="preserve" text-anchor="start" x="737.5" y="-445.75" font-family="Helvetica Neue" font-size="14.00" fill="#333333">NilaiPegawai</text>
<polygon fill="#ffffff" stroke="none" points="695.75,-392.5 695.75,-431.75 855.75,-431.75 855.75,-392.5 695.75,-392.5"/>
<polygon fill="none" stroke="black" points="695.75,-392.5 695.75,-431.75 855.75,-431.75 855.75,-392.5 695.75,-392.5"/>
<text xml:space="preserve" text-anchor="start" x="706.75" y="-406.5" font-family="Helvetica Neue" font-size="14.00" fill="#333333">id (integer)</text>
<polygon fill="#ffffff" stroke="none" points="695.75,-353.25 695.75,-392.5 855.75,-392.5 855.75,-353.25 695.75,-353.25"/>
<polygon fill="none" stroke="black" points="695.75,-353.25 695.75,-392.5 855.75,-392.5 855.75,-353.25 695.75,-353.25"/>
<text xml:space="preserve" text-anchor="start" x="706.75" y="-367.25" font-family="Helvetica Neue" font-size="14.00" fill="#333333">user_id (integer)</text>
<polygon fill="#ffffff" stroke="none" points="695.75,-314 695.75,-353.25 855.75,-353.25 855.75,-314 695.75,-314"/>
<polygon fill="none" stroke="black" points="695.75,-314 695.75,-353.25 855.75,-353.25 855.75,-314 695.75,-314"/>
<text xml:space="preserve" text-anchor="start" x="706.75" y="-328" font-family="Helvetica Neue" font-size="14.00" fill="#333333">bulan (integer)</text>
<polygon fill="#ffffff" stroke="none" points="695.75,-274.75 695.75,-314 855.75,-314 855.75,-274.75 695.75,-274.75"/>
<polygon fill="none" stroke="black" points="695.75,-274.75 695.75,-314 855.75,-314 855.75,-274.75 695.75,-274.75"/>
<text xml:space="preserve" text-anchor="start" x="706.75" y="-288.75" font-family="Helvetica Neue" font-size="14.00" fill="#333333">tahun (integer)</text>
<polygon fill="#ffffff" stroke="none" points="695.75,-235.5 695.75,-274.75 855.75,-274.75 855.75,-235.5 695.75,-235.5"/>
<polygon fill="none" stroke="black" points="695.75,-235.5 695.75,-274.75 855.75,-274.75 855.75,-235.5 695.75,-235.5"/>
<text xml:space="preserve" text-anchor="start" x="706.75" y="-249.5" font-family="Helvetica Neue" font-size="14.00" fill="#333333">kualitas (numeric)</text>
<polygon fill="#ffffff" stroke="none" points="695.75,-196.25 695.75,-235.5 855.75,-235.5 855.75,-196.25 695.75,-196.25"/>
<polygon fill="none" stroke="black" points="695.75,-196.25 695.75,-235.5 855.75,-235.5 855.75,-196.25 695.75,-196.25"/>
<text xml:space="preserve" text-anchor="start" x="706.75" y="-210.25" font-family="Helvetica Neue" font-size="14.00" fill="#333333">kuantitas (numeric)</text>
<polygon fill="#ffffff" stroke="none" points="695.75,-157 695.75,-196.25 855.75,-196.25 855.75,-157 695.75,-157"/>
<polygon fill="none" stroke="black" points="695.75,-157 695.75,-196.25 855.75,-196.25 855.75,-157 695.75,-157"/>
<text xml:space="preserve" text-anchor="start" x="706.75" y="-171" font-family="Helvetica Neue" font-size="14.00" fill="#333333">perilaku (numeric)</text>
<polygon fill="#ffffff" stroke="none" points="695.75,-117.75 695.75,-157 855.75,-157 855.75,-117.75 695.75,-117.75"/>
<polygon fill="none" stroke="black" points="695.75,-117.75 695.75,-157 855.75,-157 855.75,-117.75 695.75,-117.75"/>
<text xml:space="preserve" text-anchor="start" x="706.75" y="-131.75" font-family="Helvetica Neue" font-size="14.00" fill="#333333">nilai_akhir (numeric)</text>
<polygon fill="#ffffff" stroke="none" points="695.75,-78.5 695.75,-117.75 855.75,-117.75 855.75,-78.5 695.75,-78.5"/>
<polygon fill="none" stroke="black" points="695.75,-78.5 695.75,-117.75 855.75,-117.75 855.75,-78.5 695.75,-78.5"/>
<text xml:space="preserve" text-anchor="start" x="706.75" y="-92.5" font-family="Helvetica Neue" font-size="14.00" fill="#333333">created_at (datetime)</text>
<polygon fill="#ffffff" stroke="none" points="695.75,-39.25 695.75,-78.5 855.75,-78.5 855.75,-39.25 695.75,-39.25"/>
<polygon fill="none" stroke="black" points="695.75,-39.25 695.75,-78.5 855.75,-78.5 855.75,-39.25 695.75,-39.25"/>
<text xml:space="preserve" text-anchor="start" x="706.75" y="-53.25" font-family="Helvetica Neue" font-size="14.00" fill="#333333">updated_at (datetime)</text>
<polygon fill="#ffffff" stroke="none" points="695.75,0 695.75,-39.25 855.75,-39.25 855.75,0 695.75,0"/>
<polygon fill="none" stroke="black" points="695.75,0 695.75,-39.25 855.75,-39.25 855.75,0 695.75,0"/>
<text xml:space="preserve" text-anchor="start" x="706.75" y="-14" font-family="Helvetica Neue" font-size="14.00" fill="#333333">penilai_id (integer)</text>
</g>
<!-- appmodelsuser&#45;&gt;appmodelsnilaipegawai -->
<g id="edge10" class="edge">
<title>appmodelsuser:id&#45;&gt;appmodelsnilaipegawai:user_id</title>
<path fill="none" stroke="#fcbf49" stroke-width="1.8" d="M547.25,-514.88C547.25,-514.88 657.92,-409.05 688.18,-380.11"/>
<polygon fill="#fcbf49" stroke="#fcbf49" stroke-width="1.8" points="688.09,-380.2 698.42,-376.54 692.14,-376.33 694.88,-373.71 694.88,-373.71 694.88,-373.71 692.14,-376.33 692.2,-370.04 688.09,-380.2"/>
<text xml:space="preserve" text-anchor="middle" x="621.5" y="-447.82" font-family="Helvetica Neue" font-size="14.00"> </text>
<text xml:space="preserve" text-anchor="middle" x="658.22" y="-468.69" font-family="Helvetica Neue" font-size="14.00">HasMany</text>
<text xml:space="preserve" text-anchor="middle" x="658.22" y="-451.44" font-family="Helvetica Neue" font-size="14.00">nilaiPegawais</text>
</g>
<!-- appmodelsnilaikipapp -->
<g id="node3" class="node">
<title>appmodelsnilaikipapp</title>
<polygon fill="none" stroke="black" points="1220.5,-934.62 1004.25,-934.62 1004.25,-424.38 1220.5,-424.38 1220.5,-934.62"/>
<polygon fill="#d3d3d3" stroke="none" points="1004.25,-895.38 1004.25,-934.62 1220.5,-934.62 1220.5,-895.38 1004.25,-895.38"/>
<polygon fill="none" stroke="black" points="1004.25,-895.38 1004.25,-934.62 1220.5,-934.62 1220.5,-895.38 1004.25,-895.38"/>
<text xml:space="preserve" text-anchor="start" x="1079" y="-909.38" font-family="Helvetica Neue" font-size="14.00" fill="#333333">NilaiKipapp</text>
<polygon fill="#ffffff" stroke="none" points="1004.25,-856.12 1004.25,-895.38 1220.5,-895.38 1220.5,-856.12 1004.25,-856.12"/>
<polygon fill="none" stroke="black" points="1004.25,-856.12 1004.25,-895.38 1220.5,-895.38 1220.5,-856.12 1004.25,-856.12"/>
<text xml:space="preserve" text-anchor="start" x="1015.25" y="-870.12" font-family="Helvetica Neue" font-size="14.00" fill="#333333">id (integer)</text>
<polygon fill="#ffffff" stroke="none" points="1004.25,-816.88 1004.25,-856.12 1220.5,-856.12 1220.5,-816.88 1004.25,-816.88"/>
<polygon fill="none" stroke="black" points="1004.25,-816.88 1004.25,-856.12 1220.5,-856.12 1220.5,-816.88 1004.25,-816.88"/>
<text xml:space="preserve" text-anchor="start" x="1015.25" y="-830.88" font-family="Helvetica Neue" font-size="14.00" fill="#333333">nip_lama (varchar)</text>
<polygon fill="#ffffff" stroke="none" points="1004.25,-777.62 1004.25,-816.88 1220.5,-816.88 1220.5,-777.62 1004.25,-777.62"/>
<polygon fill="none" stroke="black" points="1004.25,-777.62 1004.25,-816.88 1220.5,-816.88 1220.5,-777.62 1004.25,-777.62"/>
<text xml:space="preserve" text-anchor="start" x="1015.25" y="-791.62" font-family="Helvetica Neue" font-size="14.00" fill="#333333">bulan (integer)</text>
<polygon fill="#ffffff" stroke="none" points="1004.25,-738.38 1004.25,-777.62 1220.5,-777.62 1220.5,-738.38 1004.25,-738.38"/>
<polygon fill="none" stroke="black" points="1004.25,-738.38 1004.25,-777.62 1220.5,-777.62 1220.5,-738.38 1004.25,-738.38"/>
<text xml:space="preserve" text-anchor="start" x="1015.25" y="-752.38" font-family="Helvetica Neue" font-size="14.00" fill="#333333">tahun (integer)</text>
<polygon fill="#ffffff" stroke="none" points="1004.25,-699.12 1004.25,-738.38 1220.5,-738.38 1220.5,-699.12 1004.25,-699.12"/>
<polygon fill="none" stroke="black" points="1004.25,-699.12 1004.25,-738.38 1220.5,-738.38 1220.5,-699.12 1004.25,-699.12"/>
<text xml:space="preserve" text-anchor="start" x="1015.25" y="-713.12" font-family="Helvetica Neue" font-size="14.00" fill="#333333">rata_rata_hasil_kerja (numeric)</text>
<polygon fill="#ffffff" stroke="none" points="1004.25,-659.88 1004.25,-699.12 1220.5,-699.12 1220.5,-659.88 1004.25,-659.88"/>
<polygon fill="none" stroke="black" points="1004.25,-659.88 1004.25,-699.12 1220.5,-699.12 1220.5,-659.88 1004.25,-659.88"/>
<text xml:space="preserve" text-anchor="start" x="1015.25" y="-673.88" font-family="Helvetica Neue" font-size="14.00" fill="#333333">rata_rata_perilaku (numeric)</text>
<polygon fill="#ffffff" stroke="none" points="1004.25,-620.62 1004.25,-659.88 1220.5,-659.88 1220.5,-620.62 1004.25,-620.62"/>
<polygon fill="none" stroke="black" points="1004.25,-620.62 1004.25,-659.88 1220.5,-659.88 1220.5,-620.62 1004.25,-620.62"/>
<text xml:space="preserve" text-anchor="start" x="1015.25" y="-634.62" font-family="Helvetica Neue" font-size="14.00" fill="#333333">nilai_rata_rata (numeric)</text>
<polygon fill="#ffffff" stroke="none" points="1004.25,-581.38 1004.25,-620.62 1220.5,-620.62 1220.5,-581.38 1004.25,-581.38"/>
<polygon fill="none" stroke="black" points="1004.25,-581.38 1004.25,-620.62 1220.5,-620.62 1220.5,-581.38 1004.25,-581.38"/>
<text xml:space="preserve" text-anchor="start" x="1015.25" y="-595.38" font-family="Helvetica Neue" font-size="14.00" fill="#333333">predikat_kinerja (varchar)</text>
<polygon fill="#ffffff" stroke="none" points="1004.25,-542.12 1004.25,-581.38 1220.5,-581.38 1220.5,-542.12 1004.25,-542.12"/>
<polygon fill="none" stroke="black" points="1004.25,-542.12 1004.25,-581.38 1220.5,-581.38 1220.5,-542.12 1004.25,-542.12"/>
<text xml:space="preserve" text-anchor="start" x="1015.25" y="-556.12" font-family="Helvetica Neue" font-size="14.00" fill="#333333">nilai_prestasi (numeric)</text>
<polygon fill="#ffffff" stroke="none" points="1004.25,-502.88 1004.25,-542.12 1220.5,-542.12 1220.5,-502.88 1004.25,-502.88"/>
<polygon fill="none" stroke="black" points="1004.25,-502.88 1004.25,-542.12 1220.5,-542.12 1220.5,-502.88 1004.25,-502.88"/>
<text xml:space="preserve" text-anchor="start" x="1015.25" y="-516.88" font-family="Helvetica Neue" font-size="14.00" fill="#333333">created_at (datetime)</text>
<polygon fill="#ffffff" stroke="none" points="1004.25,-463.62 1004.25,-502.88 1220.5,-502.88 1220.5,-463.62 1004.25,-463.62"/>
<polygon fill="none" stroke="black" points="1004.25,-463.62 1004.25,-502.88 1220.5,-502.88 1220.5,-463.62 1004.25,-463.62"/>
<text xml:space="preserve" text-anchor="start" x="1015.25" y="-477.62" font-family="Helvetica Neue" font-size="14.00" fill="#333333">updated_at (datetime)</text>
<polygon fill="#ffffff" stroke="none" points="1004.25,-424.38 1004.25,-463.62 1220.5,-463.62 1220.5,-424.38 1004.25,-424.38"/>
<polygon fill="none" stroke="black" points="1004.25,-424.38 1004.25,-463.62 1220.5,-463.62 1220.5,-424.38 1004.25,-424.38"/>
<text xml:space="preserve" text-anchor="start" x="1015.25" y="-438.38" font-family="Helvetica Neue" font-size="14.00" fill="#333333">nama_file (varchar)</text>
</g>
<!-- appmodelsnilaikipapp&#45;&gt;appmodelspegawai -->
<g id="edge2" class="edge">
<title>appmodelsnilaikipapp:nip_lama&#45;&gt;appmodelspegawai:nip_lama</title>
<path fill="none" stroke="#f77f00" stroke-width="1.8" d="M995.71,-830.06C976.64,-815.69 932.25,-782.25 932.25,-782.25 932.25,-782.25 927.75,-782.25 927.75,-782.25 927.75,-782.25 874.58,-822.96 859.62,-834.41"/>
<polygon fill="#f77f00" stroke="#f77f00" stroke-width="1.8" points="995.78,-830.12 1001.06,-839.73 1000.26,-833.49 1003.29,-835.78 1003.29,-835.78 1003.29,-835.78 1000.26,-833.49 1006.48,-832.54 995.78,-830.12"/>
<polygon fill="#f77f00" stroke="#f77f00" stroke-width="1.8" points="859.58,-840.74 853.5,-832.8 855.09,-831.58 861.17,-839.52 859.58,-840.74"/>
<polyline fill="none" stroke="#f77f00" stroke-width="1.8" points="855.75,-837.38 859.72,-834.34"/>
<text xml:space="preserve" text-anchor="middle" x="930" y="-786.2" font-family="Helvetica Neue" font-size="14.00"> </text>
<text xml:space="preserve" text-anchor="middle" x="896.27" y="-769.51" font-family="Helvetica Neue" font-size="14.00">BelongsTo</text>
<text xml:space="preserve" text-anchor="middle" x="896.27" y="-752.26" font-family="Helvetica Neue" font-size="14.00">pegawai</text>
</g>
<!-- appmodelspegawai&#45;&gt;appmodelsuser -->
<g id="edge5" class="edge">
<title>appmodelspegawai:penilai_id&#45;&gt;appmodelsuser:id</title>
<path fill="none" stroke="#f77f00" stroke-width="1.8" d="M685.47,-559.32C656.07,-549.87 572.42,-522.97 551.86,-516.36"/>
<polygon fill="#f77f00" stroke="#f77f00" stroke-width="1.8" points="685.66,-559.38 693.8,-566.72 690.99,-561.09 694.6,-562.26 694.6,-562.26 694.6,-562.26 690.99,-561.09 696.55,-558.16 685.66,-559.38"/>
<polygon fill="#f77f00" stroke="#f77f00" stroke-width="1.8" points="546.67,-519.94 549.73,-510.42 551.64,-511.03 548.58,-520.55 546.67,-519.94"/>
<polyline fill="none" stroke="#f77f00" stroke-width="1.8" points="547.25,-514.88 552.01,-516.41"/>
<text xml:space="preserve" text-anchor="middle" x="621.5" y="-542.7" font-family="Helvetica Neue" font-size="14.00"> </text>
<text xml:space="preserve" text-anchor="middle" x="587.92" y="-524.54" font-family="Helvetica Neue" font-size="14.00">BelongsTo</text>
<text xml:space="preserve" text-anchor="middle" x="587.92" y="-507.29" font-family="Helvetica Neue" font-size="14.00">penilai</text>
</g>
<!-- appmodelspegawai&#45;&gt;appmodelsuser -->
<g id="edge6" class="edge">
<title>appmodelspegawai:user_id&#45;&gt;appmodelsuser:id</title>
<path fill="none" stroke="#f77f00" stroke-width="1.8" d="M692.11,-906.04C670.88,-848.72 563.61,-559.05 548.92,-519.38"/>
<polygon fill="#f77f00" stroke="#f77f00" stroke-width="1.8" points="692.07,-905.93 691.32,-916.87 694.01,-911.19 695.33,-914.75 695.33,-914.75 695.33,-914.75 694.01,-911.19 699.76,-913.75 692.07,-905.93"/>
<polygon fill="#f77f00" stroke="#f77f00" stroke-width="1.8" points="542.91,-517.55 552.29,-514.08 552.98,-515.95 543.6,-519.42 542.91,-517.55"/>
<polyline fill="none" stroke="#f77f00" stroke-width="1.8" points="547.25,-514.88 548.99,-519.56"/>
<text xml:space="preserve" text-anchor="middle" x="621.5" y="-719.33" font-family="Helvetica Neue" font-size="14.00"> </text>
<text xml:space="preserve" text-anchor="middle" x="651.26" y="-699.41" font-family="Helvetica Neue" font-size="14.00">BelongsTo</text>
<text xml:space="preserve" text-anchor="middle" x="651.26" y="-682.16" font-family="Helvetica Neue" font-size="14.00">user</text>
</g>
<!-- appmodelspegawai&#45;&gt;appmodelsnilaikipapp -->
<g id="edge7" class="edge">
<title>appmodelspegawai:nip_lama&#45;&gt;appmodelsnilaikipapp:nip_lama</title>
<path fill="none" stroke="#fcbf49" stroke-width="1.8" d="M855.75,-837.38C855.75,-837.38 959.52,-836.76 993.57,-836.56"/>
<polygon fill="#fcbf49" stroke="#fcbf49" stroke-width="1.8" points="993.65,-836.56 1003.67,-841 999.25,-836.53 1003.05,-836.51 1003.05,-836.51 1003.05,-836.51 999.25,-836.53 1003.62,-832 993.65,-836.56"/>
<text xml:space="preserve" text-anchor="middle" x="930" y="-840.89" font-family="Helvetica Neue" font-size="14.00"> </text>
<text xml:space="preserve" text-anchor="middle" x="960.29" y="-823.67" font-family="Helvetica Neue" font-size="14.00">HasMany</text>
<text xml:space="preserve" text-anchor="middle" x="960.29" y="-806.42" font-family="Helvetica Neue" font-size="14.00">nilaiKipapps</text>
</g>
<!-- appmodelsnilaipegawai&#45;&gt;appmodelsuser -->
<g id="edge3" class="edge">
<title>appmodelsnilaipegawai:user_id&#45;&gt;appmodelsuser:id</title>
<path fill="none" stroke="#f77f00" stroke-width="1.8" d="M685.13,-371.75C665.1,-369.63 623.75,-365.25 623.75,-365.25 623.75,-365.25 619.25,-365.25 619.25,-365.25 619.25,-365.25 561.13,-486.03 549.33,-510.56"/>
<polygon fill="#f77f00" stroke="#f77f00" stroke-width="1.8" points="685.21,-371.76 694.68,-377.29 690.78,-372.35 694.55,-372.75 694.55,-372.75 694.55,-372.75 690.78,-372.35 695.63,-368.34 685.21,-371.76"/>
<polygon fill="#f77f00" stroke="#f77f00" stroke-width="1.8" points="552.19,-516.14 543.18,-511.81 544.05,-510 553.06,-514.34 552.19,-516.14"/>
<polyline fill="none" stroke="#f77f00" stroke-width="1.8" points="547.25,-514.88 549.42,-510.37"/>
<text xml:space="preserve" text-anchor="middle" x="621.5" y="-369.2" font-family="Helvetica Neue" font-size="14.00"> </text>
<text xml:space="preserve" text-anchor="middle" x="629.4" y="-429.27" font-family="Helvetica Neue" font-size="14.00">BelongsTo</text>
<text xml:space="preserve" text-anchor="middle" x="629.4" y="-412.02" font-family="Helvetica Neue" font-size="14.00">user</text>
</g>
<!-- appmodelsnilaipegawai&#45;&gt;appmodelsuser -->
<g id="edge4" class="edge">
<title>appmodelsnilaipegawai:penilai_id&#45;&gt;appmodelsuser:id</title>
<path fill="none" stroke="#f77f00" stroke-width="1.8" d="M692.73,-29.69C672.95,-95.67 562.25,-464.85 548.63,-510.29"/>
<polygon fill="#f77f00" stroke="#f77f00" stroke-width="1.8" points="692.7,-29.78 699.89,-21.49 694.31,-24.41 695.4,-20.78 695.4,-20.78 695.4,-20.78 694.31,-24.41 691.27,-18.91 692.7,-29.78"/>
<polygon fill="#f77f00" stroke="#f77f00" stroke-width="1.8" points="552.33,-515.35 542.75,-512.48 543.32,-510.57 552.9,-513.44 552.33,-515.35"/>
<polyline fill="none" stroke="#f77f00" stroke-width="1.8" points="547.25,-514.88 548.69,-510.09"/>
<text xml:space="preserve" text-anchor="middle" x="621.5" y="-271.2" font-family="Helvetica Neue" font-size="14.00"> </text>
<text xml:space="preserve" text-anchor="middle" x="589.93" y="-256.69" font-family="Helvetica Neue" font-size="14.00">BelongsTo</text>
<text xml:space="preserve" text-anchor="middle" x="589.93" y="-239.44" font-family="Helvetica Neue" font-size="14.00">penilai</text>
</g>
<!-- appmodelsperiodetahun -->
<g id="node6" class="node">
<title>appmodelsperiodetahun</title>
<polygon fill="none" stroke="black" points="160,-921.25 0,-921.25 0,-685.75 160,-685.75 160,-921.25"/>
<polygon fill="#d3d3d3" stroke="none" points="0,-882 0,-921.25 160,-921.25 160,-882 0,-882"/>
<polygon fill="none" stroke="black" points="0,-882 0,-921.25 160,-921.25 160,-882 0,-882"/>
<text xml:space="preserve" text-anchor="start" x="39.5" y="-896" font-family="Helvetica Neue" font-size="14.00" fill="#333333">PeriodeTahun</text>
<polygon fill="#ffffff" stroke="none" points="0,-842.75 0,-882 160,-882 160,-842.75 0,-842.75"/>
<polygon fill="none" stroke="black" points="0,-842.75 0,-882 160,-882 160,-842.75 0,-842.75"/>
<text xml:space="preserve" text-anchor="start" x="11" y="-856.75" font-family="Helvetica Neue" font-size="14.00" fill="#333333">id (integer)</text>
<polygon fill="#ffffff" stroke="none" points="0,-803.5 0,-842.75 160,-842.75 160,-803.5 0,-803.5"/>
<polygon fill="none" stroke="black" points="0,-803.5 0,-842.75 160,-842.75 160,-803.5 0,-803.5"/>
<text xml:space="preserve" text-anchor="start" x="11" y="-817.5" font-family="Helvetica Neue" font-size="14.00" fill="#333333">tahun (integer)</text>
<polygon fill="#ffffff" stroke="none" points="0,-764.25 0,-803.5 160,-803.5 160,-764.25 0,-764.25"/>
<polygon fill="none" stroke="black" points="0,-764.25 0,-803.5 160,-803.5 160,-764.25 0,-764.25"/>
<text xml:space="preserve" text-anchor="start" x="11" y="-778.25" font-family="Helvetica Neue" font-size="14.00" fill="#333333">is_active (tinyint(1))</text>
<polygon fill="#ffffff" stroke="none" points="0,-725 0,-764.25 160,-764.25 160,-725 0,-725"/>
<polygon fill="none" stroke="black" points="0,-725 0,-764.25 160,-764.25 160,-725 0,-725"/>
<text xml:space="preserve" text-anchor="start" x="11" y="-739" font-family="Helvetica Neue" font-size="14.00" fill="#333333">created_at (datetime)</text>
<polygon fill="#ffffff" stroke="none" points="0,-685.75 0,-725 160,-725 160,-685.75 0,-685.75"/>
<polygon fill="none" stroke="black" points="0,-685.75 0,-725 160,-725 160,-685.75 0,-685.75"/>
<text xml:space="preserve" text-anchor="start" x="11" y="-699.75" font-family="Helvetica Neue" font-size="14.00" fill="#333333">updated_at (datetime)</text>
</g>
</g>
</svg>
